<?xml version="1.0" encoding="utf-8"?>
<!-- Generator: Adobe Illustrator 16.0.0, SVG Export Plug-In . SVG Version: 6.00 Build 0)  -->
<!DOCTYPE svg PUBLIC "-//W3C//DTD SVG 1.1//EN" "http://www.w3.org/Graphics/SVG/1.1/DTD/svg11.dtd">
<svg version="1.1" id="Layer_1" xmlns="http://www.w3.org/2000/svg" xmlns:xlink="http://www.w3.org/1999/xlink" x="0px" y="0px"
	 width="21.971px" height="26.898px" viewBox="0 0 21.971 26.898" enable-background="new 0 0 21.971 26.898" xml:space="preserve">
<g>
	<path fill="#BBBBBB" d="M3.035,11.871l3.189,0.011c-0.027-0.68-0.062-1.894-0.062-3.547c0-2.65,2.149-4.8,4.799-4.8
		c2.65,0,4.714,2.149,4.799,4.799c0.063,1.978,0.072,3.024,0.065,3.58l3.222,0.011c0,0-0.055-1.719-0.055-3.868
		c0-4.45-3.608-8.057-8.056-8.057c-4.45,0-8.058,3.606-8.058,8.056S3.035,11.871,3.035,11.871z"/>
	<path fill="#BBBBBB" d="M19.97,13.879H2c-1.104,0-2,0.895-2,2v11.02H21.97V15.88C21.97,14.774,21.076,13.879,19.97,13.879z"/>
</g>
</svg>
