<?xml version="1.0" encoding="utf-8"?>
<!-- Generator: Adobe Illustrator 16.0.0, SVG Export Plug-In . SVG Version: 6.00 Build 0)  -->
<!DOCTYPE svg PUBLIC "-//W3C//DTD SVG 1.1//EN" "http://www.w3.org/Graphics/SVG/1.1/DTD/svg11.dtd">
<svg version="1.1" id="Layer_1" xmlns="http://www.w3.org/2000/svg" xmlns:xlink="http://www.w3.org/1999/xlink" x="0px" y="0px"
	 width="16px" height="16px" viewBox="0 0 16 16" enable-background="new 0 0 16 16" xml:space="preserve">
<g>
	<defs>
		<rect id="SVGID_1_" width="16" height="16"/>
	</defs>
	<clipPath id="SVGID_2_">
		<use xlink:href="#SVGID_1_"  overflow="visible"/>
	</clipPath>
	<path clip-path="url(#SVGID_2_)" fill="#898989" d="M7.998,0C3.588,0,0,3.589,0,8c0,4.41,3.588,8,7.998,8C12.41,16,16,12.41,16,8
		C16,3.589,12.41,0,7.998,0 M7.998,14.531c-3.598,0-6.525-2.93-6.525-6.531c0-3.601,2.927-6.53,6.525-6.53
		c3.6,0,6.525,2.93,6.525,6.53C14.523,11.602,11.598,14.531,7.998,14.531"/>
</g>
<g>
	<defs>
		<rect id="SVGID_3_" x="0" width="16" height="16"/>
	</defs>
	<clipPath id="SVGID_4_">
		<use xlink:href="#SVGID_3_"  overflow="visible"/>
	</clipPath>
	<path clip-path="url(#SVGID_4_)" fill="#898989" d="M10.783,7.175H8.824L7.175,7.176H5.218C4.767,7.175,4.4,7.545,4.4,8
		s0.367,0.825,0.818,0.825h1.958h1.65h1.957c0.449,0,0.816-0.37,0.816-0.825S11.232,7.175,10.783,7.175"/>
</g>
</svg>
