<?xml version="1.0" encoding="utf-8"?>
<!-- Generator: Adobe Illustrator 16.0.0, SVG Export Plug-In . SVG Version: 6.00 Build 0)  -->
<!DOCTYPE svg PUBLIC "-//W3C//DTD SVG 1.1//EN" "http://www.w3.org/Graphics/SVG/1.1/DTD/svg11.dtd">
<svg version="1.1" id="Layer_1" xmlns="http://www.w3.org/2000/svg" xmlns:xlink="http://www.w3.org/1999/xlink" x="0px" y="0px"
	 width="15.999px" height="15.998px" viewBox="0 0 15.999 15.998" enable-background="new 0 0 15.999 15.998" xml:space="preserve">
<path fill="#00AF87" d="M0.558,1.582c-0.583,0.723-1.869,4.172,3.648,9.816c5.813,5.948,9.563,4.676,10.209,4.005l-3.888-3.881
	c-0.543,0.543-1.241,0.062-2.583-1.032C7.056,9.766,6.033,8.796,5.146,7.698C4.524,6.931,3.974,6.124,4.542,5.555L0.558,1.582z"/>
<path fill="#00AF87" d="M15.82,14.016c0.252-0.253,0.227-0.638-0.004-0.866v-0.006l-3.032-3.021c-0.241-0.24-0.624-0.233-0.864,0
	l-1.098,1.101l3.896,3.892c0,0,1.102-1.095,1.098-1.098L15.82,14.016L15.82,14.016z"/>
<path fill="#00AF87" d="M5.942,4.156c0.252-0.252,0.229-0.635,0-0.865V3.288c0,0-3.119-3.109-3.12-3.111
	c-0.24-0.239-0.625-0.232-0.864,0.002L0.86,1.28l3.983,3.976l1.1-1.096L5.942,4.156L5.942,4.156z"/>
</svg>
