<?xml version="1.0" encoding="utf-8"?>
<!-- Generator: Adobe Illustrator 16.0.0, SVG Export Plug-In . SVG Version: 6.00 Build 0)  -->
<!DOCTYPE svg PUBLIC "-//W3C//DTD SVG 1.1//EN" "http://www.w3.org/Graphics/SVG/1.1/DTD/svg11.dtd">
<svg version="1.1" id="Layer_1" xmlns="http://www.w3.org/2000/svg" xmlns:xlink="http://www.w3.org/1999/xlink" x="0px" y="0px"
	 width="15px" height="15px" viewBox="0 0 15 15" enable-background="new 0 0 15 15" xml:space="preserve">
<path fill-rule="evenodd" clip-rule="evenodd" fill="none" stroke="#454545" stroke-miterlimit="10" d="M7.5,0.5
	c3.865,0,7,3.134,7,7c0,3.866-3.135,7-7,7c-3.867,0-7-3.134-7-7C0.5,3.634,3.633,0.5,7.5,0.5z"/>
<g>
	<path fill="#454545" d="M8.146,9.471H6.761C6.757,9.256,6.755,9.125,6.755,9.078c0-0.484,0.074-0.883,0.223-1.195
		C7.127,7.57,7.424,7.219,7.869,6.828c0.446-0.391,0.712-0.646,0.8-0.768C8.803,5.869,8.87,5.658,8.87,5.428
		c0-0.32-0.119-0.595-0.356-0.823s-0.558-0.343-0.96-0.343c-0.388,0-0.712,0.119-0.973,0.357s-0.44,0.602-0.538,1.09L4.64,5.521
		C4.68,4.822,4.956,4.229,5.469,3.74c0.514-0.488,1.187-0.732,2.021-0.732c0.877,0,1.574,0.247,2.093,0.741s0.777,1.069,0.777,1.726
		c0,0.363-0.095,0.707-0.285,1.031S9.477,7.271,8.854,7.83C8.53,8.119,8.33,8.352,8.253,8.527C8.175,8.703,8.14,9.018,8.146,9.471z
		 M6.761,11.686v-1.646h1.527v1.646H6.761z"/>
</g>
</svg>
