<?xml version="1.0" encoding="utf-8"?>
<!-- Generator: Adobe Illustrator 16.0.0, SVG Export Plug-In . SVG Version: 6.00 Build 0)  -->
<!DOCTYPE svg PUBLIC "-//W3C//DTD SVG 1.1//EN" "http://www.w3.org/Graphics/SVG/1.1/DTD/svg11.dtd">
<svg version="1.1" id="Layer_1" xmlns="http://www.w3.org/2000/svg" xmlns:xlink="http://www.w3.org/1999/xlink" x="0px" y="0px"
	 width="12px" height="14.691px" viewBox="0 0 12 14.691" enable-background="new 0 0 12 14.691" xml:space="preserve">
<g>
	<path fill="#2D2C2C" d="M1.658,6.484L3.4,6.49C3.385,6.118,3.366,5.455,3.366,4.552c0-1.447,1.174-2.621,2.621-2.621
		c1.447,0,2.575,1.174,2.621,2.621c0.035,1.08,0.039,1.652,0.036,1.956l1.76,0.006c0,0-0.029-0.939-0.029-2.113
		c0-2.431-1.972-4.4-4.401-4.4c-2.43,0-4.401,1.97-4.401,4.399C1.572,6.83,1.658,6.484,1.658,6.484z"/>
	<path fill="#2D2C2C" d="M10.907,7.581H1.092C0.49,7.581,0,8.068,0,8.673v6.019h12V8.673C12,8.068,11.511,7.581,10.907,7.581z"/>
</g>
</svg>
