<?xml version="1.0" encoding="utf-8"?>
<!-- Generator: Adobe Illustrator 15.0.2, SVG Export Plug-In  -->
<!DOCTYPE svg PUBLIC "-//W3C//DTD SVG 1.1//EN" "http://www.w3.org/Graphics/SVG/1.1/DTD/svg11.dtd" [
	<!ENTITY ns_flows "http://ns.adobe.com/Flows/1.0/">
]>
<svg version="1.1"
	 xmlns="http://www.w3.org/2000/svg" xmlns:xlink="http://www.w3.org/1999/xlink" xmlns:a="http://ns.adobe.com/AdobeSVGViewerExtensions/3.0/"
	 x="0px" y="0px" width="240px" height="150px" viewBox="0 0 240 150" overflow="visible" enable-background="new 0 0 240 150"
	 xml:space="preserve">
<defs>
</defs>
<linearGradient id="SVGID_1_" gradientUnits="userSpaceOnUse" x1="120" y1="159.2461" x2="120" y2="-1.0429" gradientTransform="matrix(1 0 0 -1 0 151)">
	<stop  offset="0" style="stop-color:#9FD4F3"/>
	<stop  offset="0.5" style="stop-color:#1AA6DF"/>
	<stop  offset="1" style="stop-color:#3078BC"/>
</linearGradient>
<path fill="url(#SVGID_1_)" d="M240,130c0,11-9,20-20,20H20c-11,0-20-9-20-20V20C0,9,9,0,20,0h200c11,0,20,9,20,20V130z"/>
<path fill="#34679A" d="M220,1c10.5,0,19,8.5,19,19v110c0,10.5-8.5,19-19,19H20c-10.5,0-19-8.5-19-19V20C1,9.5,9.5,1,20,1H220
	 M220,0H20C9,0,0,9,0,20v110c0,11,9,20,20,20h200c11,0,20-9,20-20V20C240,9,231,0,220,0L220,0z"/>
<path opacity="0.6" fill="#FFFFFF" enable-background="new    " d="M20.8,2h198.3c10.9,0,19.8,8.9,19.8,19.7v-1
	C239,9.9,230.1,1,219.2,1H20.8C9.9,1,1,9.9,1,20.7v1C1,10.9,9.9,2,20.8,2z"/>
<path fill="#3078BC" d="M37,55.7L33.1,46l-3.9,9.7 M122.2,51.8c-0.8,0.5-1.7,0.5-2.8,0.5h-6.9v-5.4h7c1,0,2,0.1,2.7,0.4
	c0.7,0.4,1.2,1.1,1.2,2.2C123.3,50.5,122.9,51.4,122.2,51.8 M171.1,55.7l-3.9-9.7l-3.9,9.7H171.1z M79.8,66.2h-5.8l0-19.1l-8.2,19.1
	h-4.9l-8.2-19.1v19.1H41.2L39,60.7H27.2L25,66.2h-6.1L29,41.8h8.4L47,64.9V41.8h9.2l7.4,16.5l6.8-16.5h9.4L79.8,66.2L79.8,66.2z
	 M102.9,66.2H84.1V41.8h18.9v5.1H89.7v4.4h12.9v5H89.7v4.9h13.2L102.9,66.2L102.9,66.2z M129.5,48.4c0,3.9-2.5,5.9-4,6.5
	c1.2,0.5,2.3,1.3,2.8,2c0.8,1.2,0.9,2.3,0.9,4.5v4.8h-5.7l0-3.1c0-1.5,0.1-3.6-0.9-4.8c-0.8-0.9-2.1-1-4.1-1h-6.1v8.9h-5.6V41.8h13
	c2.9,0,5,0.1,6.8,1.2C128.5,44.1,129.5,45.7,129.5,48.4 M138.6,66.2h-5.8V41.8h5.8V66.2z M205.5,66.2h-8l-10.7-18.3v18.3h-11.5
	l-2.2-5.4h-11.7l-2.1,5.4h-6.6c-2.7,0-6.2-0.6-8.2-2.7c-2-2.1-3-4.9-3-9.3c0-3.6,0.6-6.9,3-9.5c1.8-1.9,4.7-2.9,8.6-2.9h5.5V47h-5.4
	c-2.1,0-3.2,0.3-4.4,1.4c-1,1-1.6,3-1.6,5.5c0,2.6,0.5,4.5,1.6,5.7c0.9,1,2.4,1.3,3.9,1.3h2.5l8-19.2h8.5l9.6,23.1V41.8h8.6l9.9,17
	v-17h5.8V66.2L205.5,66.2z M18.9,71h9.7l2.2-5.4h4.9l2.2,5.4h19v-4.1l1.7,4.2h9.9l1.7-4.2V71h47.2l0-8.9h0.9c0.6,0,0.8,0.1,0.8,1.2
	V71h24.4v-2.1c2,1.1,5,2.1,9.1,2.1h10.3l2.2-5.4h4.9l2.2,5.4h19.8v-5.2l3,5.2h15.9V37h-15.7v4l-2.2-4h-16.1v4l-2-4h-21.8
	c-3.6,0-6.8,0.5-9.4,2v-2h-15v2c-1.6-1.5-3.9-2-6.4-2H67.1l-3.7,8.8L59.6,37H42.3v4l-1.9-4H25.7l-6.8,16.2L11,71H18.9z"/>
<path fill="#FFFFFF" d="M37,56.7L33.1,47l-3.9,9.7 M122.2,52.8c-0.8,0.5-1.7,0.5-2.8,0.5h-6.9v-5.4h7c1,0,2,0.1,2.7,0.4
	c0.7,0.4,1.2,1.1,1.2,2.2C123.3,51.5,122.9,52.4,122.2,52.8 M171.1,56.7l-3.9-9.7l-3.9,9.7H171.1z M79.8,67.2h-5.8l0-19.1l-8.2,19.1
	h-4.9l-8.2-19.1v19.1H41.2L39,61.7H27.2L25,67.2h-6.1L29,42.8h8.4L47,65.9V42.8h9.2l7.4,16.5l6.8-16.5h9.4L79.8,67.2L79.8,67.2z
	 M102.9,67.2H84.1V42.8h18.9v5.1H89.7v4.4h12.9v5H89.7v4.9h13.2L102.9,67.2L102.9,67.2z M129.5,49.4c0,3.9-2.5,5.9-4,6.5
	c1.2,0.5,2.3,1.3,2.8,2c0.8,1.2,0.9,2.3,0.9,4.5v4.8h-5.7l0-3.1c0-1.5,0.1-3.6-0.9-4.8c-0.8-0.9-2.1-1-4.1-1h-6.1v8.9h-5.6V42.8h13
	c2.9,0,5,0.1,6.8,1.2C128.5,45.1,129.5,46.7,129.5,49.4 M138.6,67.2h-5.8V42.8h5.8V67.2z M205.5,67.2h-8l-10.7-18.3v18.3h-11.5
	l-2.2-5.4h-11.7l-2.1,5.4h-6.6c-2.7,0-6.2-0.6-8.2-2.7c-2-2.1-3-4.9-3-9.3c0-3.6,0.6-6.9,3-9.5c1.8-1.9,4.7-2.9,8.6-2.9h5.5V48h-5.4
	c-2.1,0-3.2,0.3-4.4,1.4c-1,1-1.6,3-1.6,5.5c0,2.6,0.5,4.5,1.6,5.7c0.9,1,2.4,1.3,3.9,1.3h2.5l8-19.2h8.5l9.6,23.1V42.8h8.6l9.9,17
	v-17h5.8V67.2L205.5,67.2z M18.9,72h9.7l2.2-5.4h4.9l2.2,5.4h19v-4.1l1.7,4.2h9.9l1.7-4.2V72h47.2l0-8.9h0.9c0.6,0,0.8,0.1,0.8,1.2
	V72h24.4v-2.1c2,1.1,5,2.1,9.1,2.1h10.3l2.2-5.4h4.9l2.2,5.4h19.8v-5.2l3,5.2h15.9V38h-15.7v4l-2.2-4h-16.1v4l-2-4h-21.8
	c-3.6,0-6.8,0.5-9.4,2v-2h-15v2c-1.6-1.5-3.9-2-6.4-2H67.1l-3.7,8.8L59.6,38H42.3v4l-1.9-4H25.7l-6.8,16.2L11,72H18.9z"/>
<path fill="#3078BC" d="M222.8,93.6V78h-3.9l0,0h-10.2c-3.2,0-5.4,0.8-7.1,2v-2h-15.5c-2.5,0-5.4,0.6-6.8,2v-2h-27.6v2
	c-2.2-1.6-5.9-2-7.6-2h-18.2v2c-1.7-1.7-5.6-2-8-2H97.5l-4.7,5.2L88.5,78H58v34h29.9l4.8-5.3l4.5,5.3l18.4,0v-8h1.8
	c2.5,0,5.3-0.1,7.9-1.2v9.2h15.2v-8.8h0.7c0.9,0,1,0,1,1v7.9h46.2c2.9,0,6-0.8,7.7-2.2v2.2h14.6c3.1,0,6-0.4,8.3-1.6v0
	c3.3-2.2,5.5-6,5.5-10.3C224.6,97.7,224,95.5,222.8,93.6z M117.7,99h-7v8.2h-11l-7-8.1l-7.2,8.1H63.1V82.8h22.7l6.9,8l7.2-8H118
	c4.5,0,9.5,1.3,9.5,8C127.6,97.6,122.7,99,117.7,99z M151.7,97.9c0.8,1.2,0.9,2.3,0.9,4.4v4.8H147v-3.1c0-1.4,0.1-3.6-0.9-4.8
	c-0.8-0.9-2.1-1.1-4.1-1.1h-6v8.9h-5.7V82.8h13.1c2.8,0,4.9,0.1,6.8,1.2c1.8,1.1,2.9,2.6,2.9,5.4c0,3.9-2.5,5.9-4,6.5
	C150.2,96.4,151.3,97.2,151.7,97.9z M175,87.9h-13.2v4.4h12.9v5h-12.9v4.8l13.2,0v5.1h-18.9V82.8H175V87.9z M189.4,107.2h-11V102h11
	c1.1,0,1.8-0.2,2.3-0.6c0.4-0.4,0.7-0.9,0.7-1.6c0-0.7-0.3-1.3-0.7-1.6c-0.4-0.4-1-0.5-2-0.5c-5.3-0.2-11.9,0.2-11.9-7.5
	c0-3.5,2.2-7.2,8.1-7.2h11.3V88h-10.4c-1,0-1.7,0-2.3,0.4c-0.6,0.4-0.8,1-0.8,1.7c0,0.9,0.5,1.5,1.2,1.8c0.6,0.2,1.2,0.3,2.2,0.3
	l3.1,0.1c3.1,0.1,5.2,0.6,6.5,2c1.1,1.2,1.7,2.7,1.7,5.2C198.3,104.8,195.1,107.2,189.4,107.2z M218.5,104.9c-1.5,1.5-3.9,2.3-7,2.3
	h-10.9V102h10.9c1.1,0,1.8-0.2,2.3-0.6c0.4-0.4,0.7-0.9,0.7-1.6c0-0.7-0.3-1.3-0.7-1.6c-0.4-0.4-1-0.5-2-0.5
	c-5.3-0.2-11.9,0.2-11.9-7.5c0-3.5,2.2-7.2,8.1-7.2h11V88h-10.1c-1,0-1.7,0-2.3,0.4c-0.6,0.4-0.8,1-0.8,1.7c0,0.9,0.5,1.5,1.2,1.8
	c0.6,0.2,1.2,0.3,2.2,0.3l3,0.1c3.1,0.1,5.2,0.6,6.4,2c0.2,0.2,0.4,0.4,0.5,0.6c-0.1-0.1-0.1-0.2-0.2-0.2c1,1.3,1.6,3,1.6,4.8
	C220.5,101.6,219.7,103.4,218.5,104.9z M82.9,87.9l6.2,7.1l-6.4,7.2H68.7v-4.8h12.4v-5H68.7v-4.4H82.9L82.9,87.9z M96.4,95.1
	l8.7-9.6V105L96.4,95.1z M121.5,90.9c0,2.1-1.4,3.2-3.5,3.2h-7.3v-6.2h7.4C120.1,87.9,121.5,88.7,121.5,90.9z M146.7,90.5
	c0,1-0.4,1.9-1.2,2.3c-0.8,0.5-1.7,0.5-2.8,0.5h-6.9v-5.5h7c1,0,2,0,2.7,0.4C146.3,88.7,146.7,89.5,146.7,90.5z"/>
<path fill="#FFFFFF" d="M222.8,94.6V79h-3.9l0,0h-10.2c-3.2,0-5.4,0.8-7.1,2v-2h-15.5c-2.5,0-5.4,0.6-6.8,2v-2h-27.6v2
	c-2.2-1.6-5.9-2-7.6-2h-18.2v2c-1.7-1.7-5.6-2-8-2H97.5l-4.7,5.2L88.5,79H58v34h29.9l4.8-5.3l4.5,5.3l18.4,0v-8h1.8
	c2.5,0,5.3-0.1,7.9-1.2v9.2h15.2v-8.8h0.7c0.9,0,1,0,1,1v7.9h46.2c2.9,0,6-0.8,7.7-2.2v2.2h14.6c3.1,0,6-0.4,8.3-1.6v0
	c3.3-2.2,5.5-6,5.5-10.3C224.6,98.7,224,96.5,222.8,94.6z M117.7,100h-7v8.2h-11l-7-8.1l-7.2,8.1H63.1V83.8h22.7l6.9,8l7.2-8H118
	c4.5,0,9.5,1.3,9.5,8C127.6,98.6,122.7,100,117.7,100z M151.7,98.9c0.8,1.2,0.9,2.3,0.9,4.4v4.8H147v-3.1c0-1.4,0.1-3.6-0.9-4.8
	c-0.8-0.9-2.1-1.1-4.1-1.1h-6v8.9h-5.7V83.8h13.1c2.8,0,4.9,0.1,6.8,1.2c1.8,1.1,2.9,2.6,2.9,5.4c0,3.9-2.5,5.9-4,6.5
	C150.2,97.4,151.3,98.2,151.7,98.9z M175,88.9h-13.2v4.4h12.9v5h-12.9v4.8l13.2,0v5.1h-18.9V83.8H175V88.9z M189.4,108.2h-11V103h11
	c1.1,0,1.8-0.2,2.3-0.6c0.4-0.4,0.7-0.9,0.7-1.6c0-0.7-0.3-1.3-0.7-1.6c-0.4-0.4-1-0.5-2-0.5c-5.3-0.2-11.9,0.2-11.9-7.5
	c0-3.5,2.2-7.2,8.1-7.2h11.3V89h-10.4c-1,0-1.7,0-2.3,0.4c-0.6,0.4-0.8,1-0.8,1.7c0,0.9,0.5,1.5,1.2,1.8c0.6,0.2,1.2,0.3,2.2,0.3
	l3.1,0.1c3.1,0.1,5.2,0.6,6.5,2c1.1,1.2,1.7,2.7,1.7,5.2C198.3,105.8,195.1,108.2,189.4,108.2z M218.5,105.9c-1.5,1.5-3.9,2.3-7,2.3
	h-10.9V103h10.9c1.1,0,1.8-0.2,2.3-0.6c0.4-0.4,0.7-0.9,0.7-1.6c0-0.7-0.3-1.3-0.7-1.6c-0.4-0.4-1-0.5-2-0.5
	c-5.3-0.2-11.9,0.2-11.9-7.5c0-3.5,2.2-7.2,8.1-7.2h11V89h-10.1c-1,0-1.7,0-2.3,0.4c-0.6,0.4-0.8,1-0.8,1.7c0,0.9,0.5,1.5,1.2,1.8
	c0.6,0.2,1.2,0.3,2.2,0.3l3,0.1c3.1,0.1,5.2,0.6,6.4,2c0.2,0.2,0.4,0.4,0.5,0.6c-0.1-0.1-0.1-0.2-0.2-0.2c1,1.3,1.6,3,1.6,4.8
	C220.5,102.6,219.7,104.4,218.5,105.9z M82.9,88.9l6.2,7.1l-6.4,7.2H68.7v-4.8h12.4v-5H68.7v-4.4H82.9L82.9,88.9z M96.4,96.1
	l8.7-9.6V106L96.4,96.1z M121.5,91.9c0,2.1-1.4,3.2-3.5,3.2h-7.3v-6.2h7.4C120.1,88.9,121.5,89.7,121.5,91.9z M146.7,91.5
	c0,1-0.4,1.9-1.2,2.3c-0.8,0.5-1.7,0.5-2.8,0.5h-6.9v-5.5h7c1,0,2,0,2.7,0.4C146.3,89.7,146.7,90.5,146.7,91.5z"/>
</svg>
