<?xml version="1.0" encoding="utf-8"?>
<!-- Generator: Adobe Illustrator 15.0.2, SVG Export Plug-In  -->
<!DOCTYPE svg PUBLIC "-//W3C//DTD SVG 1.1//EN" "http://www.w3.org/Graphics/SVG/1.1/DTD/svg11.dtd" [
	<!ENTITY ns_flows "http://ns.adobe.com/Flows/1.0/">
]>
<svg version="1.1"
	 xmlns="http://www.w3.org/2000/svg" xmlns:xlink="http://www.w3.org/1999/xlink" xmlns:a="http://ns.adobe.com/AdobeSVGViewerExtensions/3.0/"
	 x="0px" y="0px" width="240px" height="150px" viewBox="0 0 240 150" overflow="visible" enable-background="new 0 0 240 150"
	 xml:space="preserve">
<defs>
</defs>
<linearGradient id="SVGID_1_" gradientUnits="userSpaceOnUse" x1="120" y1="150.5" x2="120" y2="2.5521" gradientTransform="matrix(1 0 0 -1 0 151)">
	<stop  offset="0" style="stop-color:#FFFFFF"/>
	<stop  offset="1" style="stop-color:#CFD0D0"/>
</linearGradient>
<path fill="url(#SVGID_1_)" d="M240,130c0,11-9,20-20,20H20c-11,0-20-9-20-20V20C0,9,9,0,20,0h200c11,0,20,9,20,20V130z"/>
<linearGradient id="SVGID_2_" gradientUnits="userSpaceOnUse" x1="133.4678" y1="-3.6743" x2="133.4678" y2="61.5959" gradientTransform="matrix(1 0 0 -1 0 151)">
	<stop  offset="0" style="stop-color:#F26722"/>
	<stop  offset="1" style="stop-color:#EC8023"/>
</linearGradient>
<path fill="url(#SVGID_2_)" d="M26.9,150H220c11,0,20-9,20-20V52.4C215.9,83.2,151.2,142.9,26.9,150z"/>
<path fill="#CFD0D0" d="M220,1c10.5,0,19,8.5,19,19v110c0,10.5-8.5,19-19,19H20c-10.5,0-19-8.5-19-19V20C1,9.5,9.5,1,20,1H220
	 M220,0H20C9,0,0,9,0,20v110c0,11,9,20,20,20h200c11,0,20-9,20-20V20C240,9,231,0,220,0L220,0z"/>
<path opacity="0.5" fill="#FFFFFF" enable-background="new    " d="M219.2,148H20.8C9.9,148,1,139.1,1,128.3v1
	C1,140.1,9.9,149,20.8,149h198.3c10.9,0,19.8-8.9,19.8-19.7v-1C239,139.1,230.1,148,219.2,148z"/>
<path fill="#FFFFFF" d="M142.2,57c0,8.8-7.2,16-16.2,16c-8.9,0-16.2-7.2-16.2-16c0-8.8,7.2-16,16.2-16C134.9,41,142.2,48.2,142.2,57
	z"/>
<path fill="#FFFFFF" d="M38.9,64.7c-1.9,1.7-4.4,2.4-8.3,2.4H29V47h1.6c3.9,0,6.3,0.7,8.3,2.5c2.1,1.8,3.3,4.6,3.3,7.6
	C42.3,59.9,41,62.8,38.9,64.7L38.9,64.7z M31.9,41.9H23v30.4h8.8c4.7,0,8.1-1.1,11-3.5c3.5-2.9,5.6-7.2,5.6-11.7
	C48.5,48.1,41.7,41.9,31.9,41.9"/>
<polyline fill="#FFFFFF" points="51.3,72.2 57.3,72.2 57.3,41.9 51.3,41.9 51.3,72.2 "/>
<path fill="#FFFFFF" d="M72.1,53.5c-3.6-1.3-4.7-2.2-4.7-3.8c0-1.9,1.9-3.4,4.5-3.4c1.8,0,3.3,0.7,4.9,2.5l3.1-4
	c-2.6-2.2-5.7-3.4-9.1-3.4c-5.5,0-9.6,3.7-9.6,8.7c0,4.2,2,6.3,7.6,8.3c2.4,0.8,3.6,1.4,4.2,1.7c1.2,0.8,1.8,1.9,1.8,3.1
	c0,2.5-2,4.3-4.7,4.3c-2.9,0-5.2-1.4-6.6-4.1l-3.9,3.7c2.8,4,6.1,5.8,10.7,5.8C76.6,73,81,68.9,81,63C81,58.2,78.9,56,72.1,53.5"/>
<path fill="#FFFFFF" d="M82.9,57.1c0,8.9,7.1,15.9,16.3,15.9c2.6,0,4.8-0.5,7.6-1.8v-7c-2.4,2.4-4.6,3.3-7.3,3.3
	c-6.1,0-10.4-4.3-10.4-10.5c0-5.8,4.5-10.4,10.1-10.4c2.9,0,5.1,1,7.6,3.4v-7c-2.6-1.3-4.8-1.9-7.4-1.9
	C90.2,41.2,82.9,48.2,82.9,57.1"/>
<polyline fill="#FFFFFF" points="155.7,62.3 147.4,41.9 140.8,41.9 153.9,73 157.2,73 170.6,41.9 164,41.9 155.7,62.3 "/>
<polyline fill="#FFFFFF" points="173.3,72.2 190.4,72.2 190.4,67.1 179.3,67.1 179.3,58.9 190,58.9 190,53.7 179.3,53.7 179.3,47 
	190.4,47 190.4,41.9 173.3,41.9 173.3,72.2 "/>
<path fill="#FFFFFF" d="M202.2,55.8h-1.8v-9.2h1.8c3.8,0,5.8,1.6,5.8,4.5C208.1,54.2,206.1,55.8,202.2,55.8L202.2,55.8z M214.3,50.8
	c0-5.7-4-9-11-9h-9v30.4h6V60h0.8l8.3,12.2h7.4l-9.7-12.8C211.8,58.5,214.3,55.5,214.3,50.8"/>
<radialGradient id="SVGID_3_" cx="122.8027" cy="95" r="19.245" gradientTransform="matrix(1.0105 0 0 -1 1.8947 151)" gradientUnits="userSpaceOnUse">
	<stop  offset="0" style="stop-color:#FFFFFF"/>
	<stop  offset="1" style="stop-color:#F26722"/>
</radialGradient>
<path fill="url(#SVGID_3_)" d="M142.2,56c0,8.8-7.2,16-16.2,16c-8.9,0-16.2-7.2-16.2-16c0-8.8,7.2-16,16.2-16
	C134.9,40,142.2,47.2,142.2,56z"/>
<path fill="#0B1720" d="M38.9,63.7c-1.9,1.7-4.4,2.4-8.3,2.4H29V46h1.6c3.9,0,6.3,0.7,8.3,2.5c2.1,1.8,3.3,4.6,3.3,7.6
	C42.3,58.9,41,61.8,38.9,63.7L38.9,63.7z M31.9,40.9H23v30.4h8.8c4.7,0,8.1-1.1,11-3.5c3.5-2.9,5.6-7.2,5.6-11.7
	C48.5,47.1,41.7,40.9,31.9,40.9"/>
<polyline fill="#0B1720" points="51.3,71.2 57.3,71.2 57.3,40.9 51.3,40.9 51.3,71.2 "/>
<path fill="#0B1720" d="M72.1,52.5c-3.6-1.3-4.7-2.2-4.7-3.8c0-1.9,1.9-3.4,4.5-3.4c1.8,0,3.3,0.7,4.9,2.5l3.1-4
	c-2.6-2.2-5.7-3.4-9.1-3.4c-5.5,0-9.6,3.7-9.6,8.7c0,4.2,2,6.3,7.6,8.3c2.4,0.8,3.6,1.4,4.2,1.7c1.2,0.8,1.8,1.9,1.8,3.1
	c0,2.5-2,4.3-4.7,4.3c-2.9,0-5.2-1.4-6.6-4.1l-3.9,3.7c2.8,4,6.1,5.8,10.7,5.8C76.6,72,81,67.9,81,62C81,57.2,78.9,55,72.1,52.5"/>
<path fill="#0B1720" d="M82.9,56.1c0,8.9,7.1,15.9,16.3,15.9c2.6,0,4.8-0.5,7.6-1.8v-7c-2.4,2.4-4.6,3.3-7.3,3.3
	c-6.1,0-10.4-4.3-10.4-10.5c0-5.8,4.5-10.4,10.1-10.4c2.9,0,5.1,1,7.6,3.4v-7c-2.6-1.3-4.8-1.9-7.4-1.9
	C90.2,40.2,82.9,47.2,82.9,56.1"/>
<polyline fill="#0B1720" points="155.7,61.3 147.4,40.9 140.8,40.9 153.9,72 157.2,72 170.6,40.9 164,40.9 155.7,61.3 "/>
<polyline fill="#0B1720" points="173.3,71.2 190.4,71.2 190.4,66.1 179.3,66.1 179.3,57.9 190,57.9 190,52.7 179.3,52.7 179.3,46 
	190.4,46 190.4,40.9 173.3,40.9 173.3,71.2 "/>
<path fill="#0B1720" d="M202.2,54.8h-1.8v-9.2h1.8c3.8,0,5.8,1.6,5.8,4.5C208.1,53.2,206.1,54.8,202.2,54.8L202.2,54.8z M214.3,49.8
	c0-5.7-4-9-11-9h-9v30.4h6V59h0.8l8.3,12.2h7.4l-9.7-12.8C211.8,57.5,214.3,54.5,214.3,49.8"/>
<path fill="#FFFFFF" d="M67,100V83l11.6,12.1v-11H81v16.9L69.4,88.8V100H67z"/>
<path fill="#FFFFFF" d="M93.6,86.3h-6.4v3.8h6.2v2.3h-6.2v5.3h6.4v2.3h-8.8V84.1h8.8V86.3z"/>
<path fill="#FFFFFF" d="M101.2,86.3V100h-2.4V86.3h-3.7v-2.3h9.7v2.3H101.2z"/>
<path fill="#FFFFFF" d="M108.7,84.1l4.1,10.6l4.3-11.4l4.1,11.4l4.4-10.6h2.6l-7.1,16.9l-4.1-11.3l-4.3,11.3l-6.8-16.9H108.7z"/>
<path fill="#FFFFFF" d="M128.8,92c0-2.2,0.8-4.2,2.5-5.8c1.6-1.6,3.6-2.4,5.9-2.4c2.3,0,4.2,0.8,5.8,2.4c1.6,1.6,2.4,3.6,2.4,5.8
	c0,2.3-0.8,4.2-2.5,5.8c-1.6,1.6-3.6,2.4-5.9,2.4c-2.1,0-3.9-0.7-5.5-2.1C129.7,96.6,128.8,94.5,128.8,92z M131.2,92
	c0,1.8,0.6,3.2,1.8,4.3c1.2,1.1,2.5,1.7,4.1,1.7c1.7,0,3.1-0.6,4.2-1.7c1.1-1.2,1.7-2.6,1.7-4.3c0-1.7-0.6-3.1-1.7-4.3
	c-1.1-1.2-2.5-1.7-4.2-1.7c-1.7,0-3.1,0.6-4.2,1.7C131.8,88.9,131.2,90.3,131.2,92z"/>
<path fill="#FFFFFF" d="M153.8,93.2l4.9,6.8h-2.9l-4.5-6.5h-0.4v6.5h-2.4V84.1h2.8c2.1,0,3.6,0.4,4.6,1.2c1,0.9,1.5,2,1.5,3.5
	c0,1.1-0.3,2.1-1,2.9C155.7,92.5,154.9,93,153.8,93.2z M150.8,91.4h0.8c2.3,0,3.4-0.9,3.4-2.6c0-1.6-1.1-2.4-3.3-2.4h-0.9
	L150.8,91.4L150.8,91.4z"/>
<path fill="#FFFFFF" d="M163.6,90.4l6.2-6.3h3.2l-7.2,7.2l7.2,8.7h-3.2l-5.7-7.1l-0.5,0.5v6.6h-2.4V84.1h2.4V90.4L163.6,90.4z"/>
<path fill="#010101" d="M67,99V82l11.6,12.1v-11H81v16.9L69.4,87.8V99H67z"/>
<path fill="#010101" d="M93.6,85.3h-6.4v3.8h6.2v2.3h-6.2v5.3h6.4V99h-8.8V83.1h8.8V85.3z"/>
<path fill="#010101" d="M101.2,85.3V99h-2.4V85.3h-3.7v-2.3h9.7v2.3H101.2z"/>
<path fill="#010101" d="M108.7,83.1l4.1,10.6l4.3-11.4l4.1,11.4l4.4-10.6h2.6l-7.1,16.9l-4.1-11.3l-4.3,11.3l-6.8-16.9H108.7z"/>
<path fill="#010101" d="M128.8,91c0-2.2,0.8-4.2,2.5-5.8c1.6-1.6,3.6-2.4,5.9-2.4c2.3,0,4.2,0.8,5.8,2.4c1.6,1.6,2.4,3.6,2.4,5.8
	c0,2.3-0.8,4.2-2.5,5.8c-1.6,1.6-3.6,2.4-5.9,2.4c-2.1,0-3.9-0.7-5.5-2.1C129.7,95.6,128.8,93.5,128.8,91z M131.2,91
	c0,1.8,0.6,3.2,1.8,4.3c1.2,1.1,2.5,1.7,4.1,1.7c1.7,0,3.1-0.6,4.2-1.7c1.1-1.2,1.7-2.6,1.7-4.3c0-1.7-0.6-3.1-1.7-4.3
	c-1.1-1.2-2.5-1.7-4.2-1.7c-1.7,0-3.1,0.6-4.2,1.7C131.8,87.9,131.2,89.3,131.2,91z"/>
<path fill="#010101" d="M153.8,92.2l4.9,6.8h-2.9l-4.5-6.5h-0.4V99h-2.4V83.1h2.8c2.1,0,3.6,0.4,4.6,1.2c1,0.9,1.5,2,1.5,3.5
	c0,1.1-0.3,2.1-1,2.9C155.7,91.5,154.9,92,153.8,92.2z M150.8,90.4h0.8c2.3,0,3.4-0.9,3.4-2.6c0-1.6-1.1-2.4-3.3-2.4h-0.9
	L150.8,90.4L150.8,90.4z"/>
<path fill="#010101" d="M163.6,89.4l6.2-6.3h3.2l-7.2,7.2L173,99h-3.2l-5.7-7.1l-0.5,0.5V99h-2.4V83.1h2.4V89.4L163.6,89.4z"/>
</svg>
