<?xml version="1.0" encoding="utf-8"?>
<!-- Generator: Adobe Illustrator 15.0.2, SVG Export Plug-In  -->
<!DOCTYPE svg PUBLIC "-//W3C//DTD SVG 1.1//EN" "http://www.w3.org/Graphics/SVG/1.1/DTD/svg11.dtd" [
	<!ENTITY ns_flows "http://ns.adobe.com/Flows/1.0/">
]>
<svg version="1.1"
	 xmlns="http://www.w3.org/2000/svg" xmlns:xlink="http://www.w3.org/1999/xlink" xmlns:a="http://ns.adobe.com/AdobeSVGViewerExtensions/3.0/"
	 x="0px" y="0px" width="240px" height="150px" viewBox="0 0 240 150" overflow="visible" enable-background="new 0 0 240 150"
	 xml:space="preserve">
<defs>
</defs>
<radialGradient id="SVGID_1_" cx="57.0029" cy="163.7451" r="231.5961" gradientTransform="matrix(1 0 0 -1 0 151)" gradientUnits="userSpaceOnUse">
	<stop  offset="0" style="stop-color:#A0C9E3"/>
	<stop  offset="1" style="stop-color:#01588F"/>
</radialGradient>
<path fill="url(#SVGID_1_)" d="M240,130c0,11-9,20-20,20H20c-11,0-20-9-20-20V20C0,9,9,0,20,0h200c11,0,20,9,20,20V130z"/>
<path fill="#1D7BB9" d="M220,1c10.5,0,19,8.5,19,19v110c0,10.5-8.5,19-19,19H20c-10.5,0-19-8.5-19-19V20C1,9.5,9.5,1,20,1H220
	 M220,0H20C9,0,0,9,0,20v110c0,11,9,20,20,20h200c11,0,20-9,20-20V20C240,9,231,0,220,0L220,0z"/>
<path opacity="0.5" fill="#9FD4F3" enable-background="new    " d="M219.2,1H20.8C9.9,1,1,9.9,1,20.7v1C1,10.9,9.9,2,20.8,2h198.3
	c10.9,0,19.8,8.9,19.8,19.7v-1C239,9.9,230.1,1,219.2,1z"/>
<path opacity="0.5" fill="#9FD4F3" enable-background="new    " d="M20.8,149h198.3c10.9,0,19.8-8.9,19.8-19.7v-1
	c0,10.9-8.9,19.7-19.8,19.7H20.8C9.9,148,1,139.1,1,128.3v1C1,140.1,9.9,149,20.8,149z"/>
<path fill="#A0C9E3" d="M155.1,24.3c-13.1,0-25.1,5-34.1,13.1c-9-8.2-21-13.1-34.1-13.1c-0.1,0-0.2,0-0.3,0
	C58.6,24.5,36,47.2,36,75.1c0,28.1,22.8,50.9,50.9,50.9c13.1,0,25.1-5,34.1-13.1c9,8.2,21,13.1,34.2,13.1
	c28.1,0,50.9-22.8,50.9-50.9c0,0,0,0,0,0C206,47,183.2,24.3,155.1,24.3z"/>
<path fill="#941B1E" d="M86.5,22C58.6,22.2,36,44.9,36,72.9c0,28.1,22.8,50.9,50.9,50.9c13.2,0,25.2-5,34.2-13.2c0,0,0,0,0,0h0
	c1.8-1.7,3.6-3.5,5.2-5.4h-10.4c-1.4-1.7-2.7-3.4-3.8-5.2h18c1.1-1.8,2.1-3.6,3-5.4h-23.9c-0.8-1.8-1.5-3.5-2.1-5.4h28.1
	c1.7-5.1,2.6-10.5,2.6-16.1c0-3.7-0.4-7.4-1.2-10.9h-31.1c0.4-1.8,0.9-3.6,1.5-5.3h28.2c-0.6-1.9-1.4-3.7-2.2-5.4h-23.8
	c0.9-1.8,1.8-3.6,2.9-5.3h18c-1.2-1.9-2.5-3.7-4-5.4h-10c1.5-1.8,3.3-3.5,5.1-5.1C112.1,27,100.1,22,86.9,22
	C86.8,22,86.7,22,86.5,22z"/>
<path fill="#F26722" d="M206,72.9c0,28.1-22.8,50.9-50.9,50.9c-28.1,0-50.9-22.7-50.9-50.8c0,0,0,0,0,0c0-28.1,22.8-50.9,50.9-50.9
	C183.2,22,206,44.7,206,72.9C206,72.9,206,72.9,206,72.9z"/>
<path fill="#F8991D" d="M206,74c0,28.1-22.8,50.9-50.9,50.9c-28.1,0-50.9-22.7-50.9-50.8c0,0,0,0,0,0c0-28.1,22.8-50.9,50.9-50.9
	C183.2,23.1,206,45.9,206,74C206,74,206,74,206,74z"/>
<path fill="#CB2026" d="M86.5,23.1C58.6,23.3,36,46,36,74c0,28.1,22.8,50.9,50.9,50.9c13.2,0,25.2-5,34.2-13.2c0,0,0,0,0,0h0
	c1.8-1.7,3.6-3.5,5.2-5.4h-10.4c-1.4-1.7-2.7-3.4-3.8-5.2h18c1.1-1.8,2.1-3.6,3-5.4h-23.9c-0.8-1.8-1.5-3.5-2.1-5.4h28.1
	c1.7-5.1,2.6-10.5,2.6-16.1c0-3.7-0.4-7.4-1.2-10.9h-31.1c0.4-1.8,0.9-3.6,1.5-5.3h28.2c-0.6-1.9-1.4-3.7-2.2-5.4h-23.8
	c0.9-1.8,1.8-3.6,2.9-5.3h18c-1.2-1.9-2.5-3.7-4-5.4h-10c1.5-1.8,3.3-3.5,5.1-5.1c-9.1-8.2-21.1-13.3-34.3-13.3
	C86.8,23.1,86.7,23.1,86.5,23.1z"/>
<path fill="#21205F" d="M106.4,88.3l0.7-4.7c-0.4,0-0.9,0.2-1.4,0.2c-1.9,0-2.1-1-2-1.8l1.5-9.6h2.9l0.7-5.2H106l0.5-3.2h-5.4
	c-0.1,0.1-3.2,18.1-3.2,20.3c0,3.2,1.8,4.7,4.3,4.7C104.3,89,105.8,88.4,106.4,88.3z"/>
<path fill="#21205F" d="M108.1,79.5c0,7.6,5,9.5,9.4,9.5c4,0,5.7-0.9,5.7-0.9l1-5.2c0,0-3,1.3-5.8,1.3c-5.8,0-4.8-4.4-4.8-4.4h11
	c0,0,0.7-3.5,0.7-4.9c0-3.6-1.8-7.9-7.7-7.9C112.1,67,108.1,72.9,108.1,79.5z M117.6,71.9c3.1,0,2.5,3.4,2.5,3.7h-6
	C114,75.2,114.6,71.9,117.6,71.9z"/>
<path fill="#21205F" d="M76.5,67.1c-3.7,0-6.6,1.2-6.6,1.2L69.2,73c0,0,2.3-1,5.9-1c2,0,3.5,0.2,3.5,1.9c0,1-0.2,1.4-0.2,1.4
	s-1.6-0.1-2.3-0.1c-4.7,0-9.6,2-9.6,8c0,4.8,3.2,5.8,5.2,5.8c3.8,0,5.5-2.5,5.6-2.5l-0.2,2.1h4.8L84,73.7
	C84,67.3,78.5,67.1,76.5,67.1z M77.7,79.3c0.1,0.9-0.6,5.2-3.8,5.2c-1.7,0-2.1-1.3-2.1-2.1c0-1.5,0.8-3.3,4.8-3.3
	C77.5,79.2,77.6,79.3,77.7,79.3z"/>
<path fill="#21205F" d="M89.1,89c1.2,0,8.2,0.3,8.2-6.9c0-6.7-6.5-5.4-6.5-8.1c0-1.3,1-1.8,3-1.8c0.8,0,3.7,0.3,3.7,0.3l0.7-4.8
	c0,0-1.9-0.4-5-0.4c-4,0-8.1,1.6-8.1,7.1c0,6.2,6.8,5.6,6.8,8.2c0,1.7-1.9,1.9-3.4,1.9c-2.5,0-4.8-0.9-4.8-0.8L83,88.3
	C83.1,88.4,84.5,89,89.1,89z"/>
<path fill="#21205F" d="M47.2,89l3.3-19.6L51,89h3.7l7-19.6L58.6,89h5.6l4.3-26h-8.6l-5.4,16l-0.3-16h-7.9L42,89H47.2z"/>
<path fill="#21205F" d="M130.7,89c1.6-8.9,1.9-16,5.6-14.7c0.7-3.4,1.3-4.8,2-6.2c0,0-0.3-0.1-1-0.1c-2.4,0-4.2,3.3-4.2,3.3l0.5-3
	h-5L125.1,89H130.7z"/>
<path fill="#21205F" d="M151.9,88.2l1-5.9c0,0-2.7,1.3-4.5,1.3c-3.8,0-5.4-2.9-5.4-6.1c0-6.4,3.3-9.9,7-9.9c2.8,0,5,1.5,5,1.5
	l0.9-5.7c0,0-3.3-1.3-6.1-1.3c-6.3,0-12.3,5.4-12.3,15.6c0,6.8,3.3,11.2,9.7,11.2C148.9,89,151.9,88.2,151.9,88.2z"/>
<path fill="#21205F" d="M196.7,63l-1.2,7.2c0,0-2-2.8-5.2-2.8c-5,0-9.1,6-9.1,12.8c0,4.4,2.2,8.8,6.7,8.8c3.3,0,5.1-2.3,5.1-2.3
	l-0.2,1.9h5.3l4.1-25.7L196.7,63z M194.2,77.1c0,2.8-1.4,6.6-4.4,6.6c-2,0-2.9-1.6-2.9-4.2c0-4.2,1.9-6.9,4.3-6.9
	C193.2,72.6,194.2,74,194.2,77.1z"/>
<path fill="#21205F" d="M164.4,67.1c-3.7,0-6.6,1.2-6.6,1.2L157,73c0,0,2.3-1,5.9-1c2,0,3.5,0.2,3.5,1.9c0,1-0.2,1.4-0.2,1.4
	s-1.6-0.1-2.3-0.1c-4.7,0-9.6,2-9.6,8c0,4.8,3.2,5.8,5.2,5.8c3.8,0,5.5-2.5,5.5-2.5l-0.2,2.1c0,0,4.8,0,4.8,0l2.1-14.9
	C171.8,67.3,166.3,67.1,164.4,67.1z M165.5,79.3c0.1,0.9-0.6,5.2-3.8,5.2c-1.7,0-2.1-1.3-2.1-2.1c0-1.5,0.8-3.3,4.8-3.3
	C165.3,79.2,165.4,79.3,165.5,79.3z"/>
<path fill="#21205F" d="M176.2,89c1.6-8.9,1.9-16,5.6-14.7c0.7-3.4,1.3-4.8,2-6.2c0,0-0.3-0.1-1-0.1c-2.4,0-4.2,3.3-4.2,3.3l0.5-3
	h-5L170.6,89H176.2z"/>
<path fill="#FFFFFF" d="M106.4,87.3l0.7-4.7c-0.4,0-0.9,0.2-1.4,0.2c-1.9,0-2.1-1-2-1.8l1.5-9.6h2.9l0.7-5.2H106l0.5-3.2h-5.4
	c-0.1,0.1-3.2,18.1-3.2,20.3c0,3.2,1.8,4.7,4.3,4.7C104.3,88,105.8,87.4,106.4,87.3z"/>
<path fill="#FFFFFF" d="M108.1,78.5c0,7.6,5,9.5,9.4,9.5c4,0,5.7-0.9,5.7-0.9l1-5.2c0,0-3,1.3-5.8,1.3c-5.8,0-4.8-4.4-4.8-4.4h11
	c0,0,0.7-3.5,0.7-4.9c0-3.6-1.8-7.9-7.7-7.9C112.1,66,108.1,71.9,108.1,78.5z M117.6,70.9c3.1,0,2.5,3.4,2.5,3.7h-6
	C114,74.2,114.6,70.9,117.6,70.9z"/>
<path fill="#FFFFFF" d="M76.5,66.1c-3.7,0-6.6,1.2-6.6,1.2L69.2,72c0,0,2.3-1,5.9-1c2,0,3.5,0.2,3.5,1.9c0,1-0.2,1.4-0.2,1.4
	s-1.6-0.1-2.3-0.1c-4.7,0-9.6,2-9.6,8c0,4.8,3.2,5.8,5.2,5.8c3.8,0,5.5-2.5,5.6-2.5l-0.2,2.1h4.8L84,72.7
	C84,66.3,78.5,66.1,76.5,66.1z M77.7,78.3c0.1,0.9-0.6,5.2-3.8,5.2c-1.7,0-2.1-1.3-2.1-2.1c0-1.5,0.8-3.3,4.8-3.3
	C77.5,78.2,77.6,78.3,77.7,78.3z"/>
<path fill="#FFFFFF" d="M89.1,88c1.2,0,8.2,0.3,8.2-6.9c0-6.7-6.5-5.4-6.5-8.1c0-1.3,1-1.8,3-1.8c0.8,0,3.7,0.3,3.7,0.3l0.7-4.8
	c0,0-1.9-0.4-5-0.4c-4,0-8.1,1.6-8.1,7.1c0,6.2,6.8,5.6,6.8,8.2c0,1.7-1.9,1.9-3.4,1.9c-2.5,0-4.8-0.9-4.8-0.8L83,87.3
	C83.1,87.4,84.5,88,89.1,88z"/>
<path fill="#FFFFFF" d="M47.2,88l3.3-19.6L51,88h3.7l7-19.6L58.6,88h5.6l4.3-26h-8.6l-5.4,16l-0.3-16h-7.9L42,88H47.2z"/>
<path fill="#FFFFFF" d="M130.7,88c1.6-8.9,1.9-16,5.6-14.7c0.7-3.4,1.3-4.8,2-6.2c0,0-0.3-0.1-1-0.1c-2.4,0-4.2,3.3-4.2,3.3l0.5-3
	h-5L125.1,88H130.7z"/>
<path fill="#FFFFFF" d="M151.9,87.2l1-5.9c0,0-2.7,1.3-4.5,1.3c-3.8,0-5.4-2.9-5.4-6.1c0-6.4,3.3-9.9,7-9.9c2.8,0,5,1.5,5,1.5
	l0.9-5.7c0,0-3.3-1.3-6.1-1.3c-6.3,0-12.3,5.4-12.3,15.6c0,6.8,3.3,11.2,9.7,11.2C148.9,88,151.9,87.2,151.9,87.2z"/>
<path fill="#FFFFFF" d="M196.7,62l-1.2,7.2c0,0-2-2.8-5.2-2.8c-5,0-9.1,6-9.1,12.8c0,4.4,2.2,8.8,6.7,8.8c3.3,0,5.1-2.3,5.1-2.3
	l-0.2,1.9h5.3l4.1-25.7L196.7,62z M194.2,76.1c0,2.8-1.4,6.6-4.4,6.6c-2,0-2.9-1.6-2.9-4.2c0-4.2,1.9-6.9,4.3-6.9
	C193.2,71.6,194.2,73,194.2,76.1z"/>
<path fill="#FFFFFF" d="M164.4,66.1c-3.7,0-6.6,1.2-6.6,1.2L157,72c0,0,2.3-1,5.9-1c2,0,3.5,0.2,3.5,1.9c0,1-0.2,1.4-0.2,1.4
	s-1.6-0.1-2.3-0.1c-4.7,0-9.6,2-9.6,8c0,4.8,3.2,5.8,5.2,5.8c3.8,0,5.5-2.5,5.5-2.5l-0.2,2.1c0,0,4.8,0,4.8,0l2.1-14.9
	C171.8,66.3,166.3,66.1,164.4,66.1z M165.5,78.3c0.1,0.9-0.6,5.2-3.8,5.2c-1.7,0-2.1-1.3-2.1-2.1c0-1.5,0.8-3.3,4.8-3.3
	C165.3,78.2,165.4,78.3,165.5,78.3z"/>
<path fill="#FFFFFF" d="M176.2,88c1.6-8.9,1.9-16,5.6-14.7c0.7-3.4,1.3-4.8,2-6.2c0,0-0.3-0.1-1-0.1c-2.4,0-4.2,3.3-4.2,3.3l0.5-3
	h-5L170.6,88H176.2z"/>
</svg>
