<?xml version="1.0" encoding="utf-8"?>
<!-- Generator: Adobe Illustrator 15.0.2, SVG Export Plug-In  -->
<!DOCTYPE svg PUBLIC "-//W3C//DTD SVG 1.1//EN" "http://www.w3.org/Graphics/SVG/1.1/DTD/svg11.dtd" [
	<!ENTITY ns_flows "http://ns.adobe.com/Flows/1.0/">
]>
<svg version="1.1"
	 xmlns="http://www.w3.org/2000/svg" xmlns:xlink="http://www.w3.org/1999/xlink" xmlns:a="http://ns.adobe.com/AdobeSVGViewerExtensions/3.0/"
	 x="0px" y="0px" width="240px" height="150px" viewBox="0 0 240 150" overflow="visible" enable-background="new 0 0 240 150"
	 xml:space="preserve">
<defs>
</defs>
<linearGradient id="SVGID_1_" gradientUnits="userSpaceOnUse" x1="120" y1="150.5" x2="120" y2="-20.0116" gradientTransform="matrix(1 0 0 -1 0 151)">
	<stop  offset="0" style="stop-color:#FFFFFF"/>
	<stop  offset="1" style="stop-color:#CFD0D0"/>
</linearGradient>
<path fill="url(#SVGID_1_)" d="M240,130c0,11-9,20-20,20H20c-11,0-20-9-20-20V20C0,9,9,0,20,0h200c11,0,20,9,20,20V130z"/>
<path fill="#CFD0D0" d="M220,1c10.5,0,19,8.5,19,19v110c0,10.5-8.5,19-19,19H20c-10.5,0-19-8.5-19-19V20C1,9.5,9.5,1,20,1H220
	 M220,0H20C9,0,0,9,0,20v110c0,11,9,20,20,20h200c11,0,20-9,20-20V20C240,9,231,0,220,0L220,0z"/>
<polygon fill="#FFFFFF" points="99,42 88.5,104 105.5,104 116,42 "/>
<path fill="#FFFFFF" d="M149.3,67c-5.9-2.9-9.6-4.8-9.5-7.7c0-2.6,3.1-5.3,9.7-5.3c5.6-0.1,9.6,1.1,12.7,2.4l1.5,0.7l2.3-13.4
	c-3.4-1.3-8.6-2.6-15.2-2.6c-16.8,0-28.6,8.4-28.7,20.5c-0.1,8.9,8.4,13.9,14.9,16.8c6.6,3,8.8,5,8.8,7.7c0,4.2-5.3,6.1-10.2,6.1
	c-6.8,0-10.4-0.9-16-3.3l-2.2-1l-2.4,13.9c4,1.7,11.3,3.2,18.9,3.3c17.9,0,29.5-8.3,29.6-21.2C163.6,76.8,159.1,71.4,149.3,67z"/>
<path fill="#FFFFFF" d="M208,42h-13c-4.1,0-7,1.2-8.8,5.3L161,104h18l3.5-9.5H204l2,9.5h16L208,42z M187.3,82.1
	c1.4-3.6,6.8-17.3,6.8-17.3c-0.1,0.2,1.4-3.6,2.3-5.9l1.2,5.3c0,0,3.3,14.8,3.9,17.9H187.3z"/>
<path fill="#FFFFFF" d="M74.5,42l-17,42.5L56,76l-6.2-28.7c-1-3.9-4.1-5.2-7.8-5.3H14v1c6.9,1.7,13.1,4.1,18.5,7.2l15,53.8h18l27-62
	H74.5z"/>
<polygon fill="#293689" points="88.5,103 99,41 116,41 105.5,103 "/>
<path fill="#293689" d="M166,42.6c-3.4-1.3-8.6-2.6-15.2-2.6c-16.8,0-28.6,8.4-28.7,20.5c-0.1,8.9,8.4,13.9,14.9,16.8
	c6.6,3,8.8,5,8.8,7.7c0,4.2-5.3,6.1-10.2,6.1c-6.8,0-10.4-0.9-16-3.3l-2.2-1l-2.4,13.9c4,1.7,11.3,3.2,18.9,3.3
	c17.9,0,29.5-8.3,29.6-21.2c0.1-7.1-4.5-12.4-14.3-16.8c-5.9-2.9-9.6-4.8-9.5-7.7c0-2.6,3.1-5.3,9.7-5.3c5.6-0.1,9.6,1.1,12.7,2.4
	l1.5,0.7L166,42.6L166,42.6z"/>
<path fill="#293689" d="M195,41c-4.1,0-7,1.2-8.8,5.3L161,103h18l3.5-9.5H204l2,9.5h16l-14-62H195z M187.3,81.1
	c1.4-3.6,6.8-17.3,6.8-17.3c-0.1,0.2,1.4-3.6,2.3-5.9l1.2,5.3c0,0,3.3,14.8,3.9,17.9H187.3L187.3,81.1z"/>
<path fill="#293689" d="M57.5,83.5L56,75c-3.1-9.9-12.7-20.6-23.5-26l15,54h18l27-62h-18L57.5,83.5z"/>
<path fill="#F8991D" d="M14,41v1c21.3,5.1,36.1,18.1,42,33l-6.2-28.7c-1-3.9-4.1-5.2-7.8-5.3H14z"/>
</svg>
