<?xml version="1.0" encoding="utf-8"?>
<!-- Generator: Adobe Illustrator 17.1.0, SVG Export Plug-In . SVG Version: 6.00 Build 0)  -->
<!DOCTYPE svg PUBLIC "-//W3C//DTD SVG 1.1//EN" "http://www.w3.org/Graphics/SVG/1.1/DTD/svg11.dtd">
<svg version="1.1" id="Isolation_Mode" xmlns="http://www.w3.org/2000/svg" xmlns:xlink="http://www.w3.org/1999/xlink" x="0px"
	 y="0px" viewBox="0 0 20 20" enable-background="new 0 0 20 20" xml:space="preserve">
<path fill="#0075DE" d="M10,1c5,0,9,4,9,9s-4,9-9,9c-5,0-9-4-9-9S5,1,10,1 M10,0C4.5,0,0,4.5,0,10c0,5.5,4.5,10,10,10
	c5.5,0,10-4.5,10-10C20,4.5,15.5,0,10,0"/>
<path fill="#0075DE" d="M9,12.9c-0.1,0-0.3-0.1-0.4-0.2L5.8,9.8c-0.2-0.2-0.2-0.5,0-0.7c0.2-0.2,0.5-0.2,0.7,0L9,11.7l4.3-4.6
	c0.2-0.2,0.5-0.2,0.7,0c0.2,0.2,0.2,0.5,0,0.7l-4.7,4.9C9.2,12.9,9.1,12.9,9,12.9L9,12.9z"/>
</svg>
