<?xml version="1.0" encoding="utf-8"?>
<!-- Generator: Adobe Illustrator 16.0.0, SVG Export Plug-In . SVG Version: 6.00 Build 0)  -->
<!DOCTYPE svg PUBLIC "-//W3C//DTD SVG 1.1//EN" "http://www.w3.org/Graphics/SVG/1.1/DTD/svg11.dtd">
<svg version="1.1" id="Layer_1" xmlns="http://www.w3.org/2000/svg" xmlns:xlink="http://www.w3.org/1999/xlink" x="0px" y="0px"
	 width="38px" height="38px" viewBox="0 -2 38 38" enable-background="new 0 -2 38 38" xml:space="preserve">
<path fill="#FFFFFF" d="M19-0.1c9.43,0,17.1,7.67,17.1,17.1s-7.67,17.1-17.101,17.1C9.57,34.098,1.9,26.428,1.9,17
	C1.9,7.571,9.57-0.1,19-0.1 M19-2C8.506-2,0,6.506,0,17c0,10.496,8.506,19,19,19c10.493,0,19-8.504,19-19C38,6.506,29.493-2,19-2"/>
<polyline fill="none" stroke="#FFFFFF" stroke-width="2" stroke-linecap="round" stroke-linejoin="round" stroke-miterlimit="10" points="
	11.769,16.018 17.053,21.6 25.898,12.218 "/>
</svg>
