<svg id="Layer_1" data-name="Layer 1" xmlns="http://www.w3.org/2000/svg" xmlns:xlink="http://www.w3.org/1999/xlink" viewBox="0 0 134 134"><defs><style>.cls-1{fill:none;}.cls-2{fill:#333;}.cls-3{fill:#0cac86;}.cls-4{fill:#2374aa;}.cls-5{fill:#ecb109;}.cls-6{clip-path:url(#clip-path);}.cls-7{fill:#fbc40c;}.cls-8{clip-path:url(#clip-path-2);}.cls-9{fill:#b7b7b7;}.cls-10{fill:#d8ecfb;}.cls-11{fill:#fff;}</style><clipPath id="clip-path"><path class="cls-1" d="M64.44,44.88S37.56,69.3,37.28,69.47V97H58.18V81.07c0-3.08,2.81-5.58,6.26-5.58S70.7,78,70.7,81.07V97H91.59V69.47C91.31,69.3,64.44,44.88,64.44,44.88ZM47.65,71a5.06,5.06,0,0,1,5.05,5H42.6A5.06,5.06,0,0,1,47.65,71Zm5.06,18.49H42.59V78.81H52.71ZM64.43,67.81a5.24,5.24,0,1,1,5.24-5.24A5.24,5.24,0,0,1,64.43,67.81ZM81.22,71a5.06,5.06,0,0,1,5.05,5H76.17A5.06,5.06,0,0,1,81.22,71Zm5.06,18.49H76.17V78.81H86.28Z"/></clipPath><clipPath id="clip-path-2"><path class="cls-2" d="M100.24,62.45,88.79,52V38h-11v4l-12-11a2,2,0,0,0-2.58,0L28.63,62.45a1.75,1.75,0,0,0-.11,2.47L31.3,68a1.76,1.76,0,0,0,2.47.12L63.14,41.34a2,2,0,0,1,2.58,0L95.11,68.09A1.76,1.76,0,0,0,97.57,68l2.78-3.06A1.75,1.75,0,0,0,100.24,62.45Z"/></clipPath></defs><title>Artboard 2 copy 48</title><circle class="cls-3" cx="67" cy="67.04" r="67"/><path class="cls-4" d="M100.24,62.45,88.79,52V38h-11v4l-12-11a2,2,0,0,0-2.58,0L28.63,62.45a1.75,1.75,0,0,0-.11,2.47L31.3,68a1.76,1.76,0,0,0,2.47.12L63.14,41.34a2,2,0,0,1,2.58,0L95.11,68.09A1.76,1.76,0,0,0,97.57,68l2.78-3.06A1.75,1.75,0,0,0,100.24,62.45Z"/><path class="cls-5" d="M64.44,44.87S37.56,69.28,37.28,69.45V97H58.18V81.05c0-3.08,2.81-5.58,6.26-5.58S70.7,78,70.7,81.05V97H91.59V69.46C91.31,69.29,64.44,44.87,64.44,44.87ZM47.65,70.94a5.06,5.06,0,0,1,5.05,5H42.6A5.06,5.06,0,0,1,47.65,70.94Zm5.06,18.49H42.59V78.8H52.71ZM64.43,67.79a5.24,5.24,0,1,1,5.24-5.24A5.24,5.24,0,0,1,64.43,67.79Zm16.79,3.14a5.06,5.06,0,0,1,5.05,5H76.17A5.06,5.06,0,0,1,81.22,70.94Zm5.06,18.49H76.17V78.8H86.28Z"/><g class="cls-6"><rect class="cls-7" x="26.05" y="20.05" width="38.38" height="82.02"/></g><path class="cls-2" d="M100.24,62.45,88.79,52V38h-11v4l-12-11a2,2,0,0,0-2.58,0L28.63,62.45a1.75,1.75,0,0,0-.11,2.47L31.3,68a1.76,1.76,0,0,0,2.47.12L63.14,41.34a2,2,0,0,1,2.58,0L95.11,68.09A1.76,1.76,0,0,0,97.57,68l2.78-3.06A1.75,1.75,0,0,0,100.24,62.45Z"/><g class="cls-8"><rect class="cls-9" x="26.05" y="20.05" width="38.38" height="82.02"/></g><path class="cls-10" d="M47.65,70.93a5.06,5.06,0,0,1,5.05,5H42.6A5.06,5.06,0,0,1,47.65,70.93Z"/><rect class="cls-10" x="42.59" y="78.8" width="10.11" height="10.63"/><path class="cls-10" d="M81.22,70.93a5.06,5.06,0,0,1,5.05,5H76.17A5.06,5.06,0,0,1,81.22,70.93Z"/><rect class="cls-10" x="76.16" y="78.8" width="10.11" height="10.63"/><path class="cls-11" d="M47.65,70.93a5.06,5.06,0,0,1,5.05,5H42.6A5.06,5.06,0,0,1,47.65,70.93Z"/><rect class="cls-11" x="42.59" y="78.8" width="10.11" height="10.63"/><rect class="cls-10" x="76.16" y="78.8" width="10.11" height="10.63"/><path class="cls-10" d="M81.22,70.93a5.06,5.06,0,0,1,5.05,5H76.17A5.06,5.06,0,0,1,81.22,70.93Z"/><circle class="cls-11" cx="64.44" cy="62.71" r="5.4"/><path class="cls-10" d="M64.44,57.31a5.4,5.4,0,0,1,0,10.81"/><polygon class="cls-11" points="83.33 18.67 82.25 25.23 75.69 26.31 82.25 27.38 83.33 33.94 84.4 27.38 90.96 26.31 84.4 25.23 83.33 18.67"/><polygon class="cls-11" points="72.83 15.8 72.27 19.2 68.86 19.76 72.27 20.32 72.83 23.73 73.39 20.32 76.8 19.76 73.39 19.2 72.83 15.8"/></svg>