<svg id="Layer_1" data-name="Layer 1" xmlns="http://www.w3.org/2000/svg" viewBox="0 0 134 134"><defs><style>.cls-1{fill:#fbc40c;}.cls-2{fill:#d8ecfb;}.cls-3{fill:#fff;}.cls-4{fill:#b7b7b7;}.cls-5{fill:#2374aa;}.cls-6{fill:#1999cf;}.cls-7{fill:#676767;}.cls-8{fill:#ed6946;}.cls-9{fill:#f08160;}</style></defs><title>Artboard 2 copy 13</title><circle class="cls-1" cx="67" cy="67" r="67"/><path class="cls-2" d="M97.27,81.87H96a.8.8,0,0,1-.71-.51L95,80.77a.81.81,0,0,1,.14-.87l.91-.91a.54.54,0,0,0,0-.76l-1.4-1.41a.55.55,0,0,0-.77,0l-.91.91a.8.8,0,0,1-.87.14l-.58-.24a.8.8,0,0,1-.51-.71V75.64a.55.55,0,0,0-.54-.54h-2a.54.54,0,0,0-.54.54v1.28a.8.8,0,0,1-.51.71l-.58.24a.81.81,0,0,1-.87-.14l-.91-.91a.55.55,0,0,0-.77,0l-1.41,1.41a.54.54,0,0,0,0,.76l.91.91a.81.81,0,0,1,.14.87l-.24.58a.8.8,0,0,1-.71.51H81.74a.54.54,0,0,0-.54.54v2a.54.54,0,0,0,.54.54H83a.81.81,0,0,1,.71.51L84,86a.81.81,0,0,1-.14.87l-.91.91a.55.55,0,0,0,0,.77L84.34,90a.55.55,0,0,0,.77,0l.91-.91a.81.81,0,0,1,.87-.14l.58.24a.81.81,0,0,1,.51.71v1.29a.54.54,0,0,0,.54.54h2a.54.54,0,0,0,.54-.54V89.88a.81.81,0,0,1,.51-.71l.58-.24a.8.8,0,0,1,.87.14l.91.91a.55.55,0,0,0,.77,0l1.4-1.41a.54.54,0,0,0,0-.77l-.91-.91A.81.81,0,0,1,95,86l.24-.58a.8.8,0,0,1,.71-.51h1.28a.54.54,0,0,0,.54-.54v-2A.54.54,0,0,0,97.27,81.87ZM89.51,86a2.62,2.62,0,1,1,2.62-2.62A2.62,2.62,0,0,1,89.51,86Z"/><path class="cls-3" d="M89.54,86h0a2.62,2.62,0,0,1,0-5.24h0V75.1h-1a.54.54,0,0,0-.54.54v1.28a.8.8,0,0,1-.51.71l-.58.24a.81.81,0,0,1-.87-.14l-.91-.91a.55.55,0,0,0-.77,0l-1.41,1.41a.54.54,0,0,0,0,.76l.91.91a.81.81,0,0,1,.14.87l-.24.58a.8.8,0,0,1-.71.51H81.74a.54.54,0,0,0-.54.54v2a.54.54,0,0,0,.54.54H83a.81.81,0,0,1,.71.51L84,86a.81.81,0,0,1-.14.87l-.91.91a.55.55,0,0,0,0,.77L84.34,90a.55.55,0,0,0,.77,0l.91-.91a.81.81,0,0,1,.87-.14l.58.24a.81.81,0,0,1,.51.71v1.29a.54.54,0,0,0,.54.54h1Z"/><rect class="cls-4" x="41.72" y="32.79" width="36.21" height="71.26" rx="5.52" ry="5.52"/><path class="cls-3" d="M55.08,37.05h9.49a.49.49,0,0,1,0,1H55.08a.49.49,0,0,1,0-1Z"/><rect class="cls-5" x="44.14" y="43.64" width="31.37" height="46.47"/><polygon class="cls-6" points="75.51 90.11 44.14 90.11 75.51 43.64 75.51 90.11"/><path class="cls-7" d="M72.41,32.79H59.6v4.26h5a.49.49,0,0,1,0,1h-5v5.62H75.51V90.11H59.6v13.94H72.41a5.52,5.52,0,0,0,5.52-5.52V38.31A5.52,5.52,0,0,0,72.41,32.79Z"/><path class="cls-2" d="M65.05,37.54a.49.49,0,0,0-.48-.48h-5v1h5A.49.49,0,0,0,65.05,37.54Z"/><path class="cls-5" d="M75.67,49.38C66.06,50.87,59,55.48,59,60.95c0,3,2.09,5.7,5.55,7.81l-5.43,5.33L69,70.85a35.77,35.77,0,0,0,6.62,1.66Z"/><path class="cls-3" d="M82.37,25.39A23.3,23.3,0,0,0,64.6,63.79l-5.43,10.3L69,67.83A23.31,23.31,0,1,0,82.37,25.39Z"/><path class="cls-2" d="M82.37,25.39h-.23V72h.23a23.32,23.32,0,0,0,0-46.64Z"/><path class="cls-8" d="M99.61,45.34H97.4a15.83,15.83,0,0,0-.64-2.27L98.6,42a.94.94,0,0,0,.34-1.27l-1.86-3.21a.93.93,0,0,0-1.27-.34L93.9,38.3a15.08,15.08,0,0,0-1.68-1.64l1.07-1.85a.93.93,0,0,0-.34-1.27l-3.21-1.86a.93.93,0,0,0-1.27.34l-1.11,1.92a14.71,14.71,0,0,0-2.28-.58V31.22a.93.93,0,0,0-.93-.93h-3.7a.93.93,0,0,0-.93.93v2.22a15.35,15.35,0,0,0-2.27.64l-1.06-1.85a.93.93,0,0,0-1.27-.34l-3.21,1.86A.93.93,0,0,0,71.35,35l1.11,1.92a15,15,0,0,0-1.64,1.68L69,37.54a.93.93,0,0,0-1.27.34L65.84,41.1a.93.93,0,0,0,.34,1.27l1.92,1.11a14.86,14.86,0,0,0-.57,2.28H65.39a.93.93,0,0,0-.93.93v3.71a.93.93,0,0,0,.93.93H67.6a15,15,0,0,0,.64,2.27l-1.85,1.07a.93.93,0,0,0-.34,1.27l1.85,3.21a.93.93,0,0,0,1.27.34l1.92-1.11A15.09,15.09,0,0,0,72.78,60l-1.07,1.86a.93.93,0,0,0,.34,1.27L75.27,65a.93.93,0,0,0,1.26-.34l1.11-1.92a15.14,15.14,0,0,0,2.28.57v2.15a.92.92,0,0,0,.92.93h3.71a.93.93,0,0,0,.93-.93V63.23a15.81,15.81,0,0,0,2.26-.64l1.07,1.85a.92.92,0,0,0,1.27.34l3.21-1.86a.93.93,0,0,0,.34-1.27l-1.11-1.92A14.59,14.59,0,0,0,94.17,58L96,59.12a.93.93,0,0,0,1.27-.34l1.85-3.21a.93.93,0,0,0-.34-1.26l-1.92-1.11a15.05,15.05,0,0,0,.58-2.28h2.14a.93.93,0,0,0,.93-.93V46.27A.92.92,0,0,0,99.61,45.34ZM82.5,55.73a7.4,7.4,0,1,1,7.4-7.4A7.4,7.4,0,0,1,82.5,55.73Z"/><path class="cls-9" d="M82.18,57.95a9.62,9.62,0,0,1,0-19.23V30.29H80.44a.93.93,0,0,0-.93.93v2.22a15.35,15.35,0,0,0-2.27.64l-1.06-1.85a.93.93,0,0,0-1.27-.34l-3.21,1.86A.93.93,0,0,0,71.35,35l1.11,1.92a15,15,0,0,0-1.64,1.68L69,37.54a.93.93,0,0,0-1.27.34L65.84,41.1a.93.93,0,0,0,.34,1.27l1.92,1.11a14.86,14.86,0,0,0-.57,2.28H65.39a.93.93,0,0,0-.93.93v3.71a.93.93,0,0,0,.93.93H67.6a15,15,0,0,0,.64,2.27l-1.85,1.07a.93.93,0,0,0-.34,1.27l1.85,3.21a.93.93,0,0,0,1.27.34l1.92-1.11A15.09,15.09,0,0,0,72.78,60l-1.07,1.86a.93.93,0,0,0,.34,1.27L75.27,65a.93.93,0,0,0,1.26-.34l1.11-1.92a15.14,15.14,0,0,0,2.28.57v2.15a.92.92,0,0,0,.92.93h1.33Z"/><path class="cls-8" d="M82.5,36.61A11.72,11.72,0,1,0,94.22,48.33,11.72,11.72,0,0,0,82.5,36.61ZM82.5,58a9.63,9.63,0,1,1,9.62-9.62A9.63,9.63,0,0,1,82.5,58Z"/><path class="cls-9" d="M82.5,36.61h-.32v2.1h.32A9.63,9.63,0,0,1,82.5,58h-.32V60h.32a11.72,11.72,0,1,0,0-23.44Z"/><path class="cls-9" d="M82.5,38.52h-.27v1.76h.27a8.06,8.06,0,0,1,0,16.12h-.27v1.76h.27a9.81,9.81,0,1,0,0-19.63Z"/></svg>