<svg id="Layer_1" data-name="Layer 1" xmlns="http://www.w3.org/2000/svg" xmlns:xlink="http://www.w3.org/1999/xlink" viewBox="0 0 70 70"><defs><clipPath id="clip-path"><rect x="9.95" y="21.2" width="43.5" height="24.1" fill="none"/></clipPath></defs><title>Artboard 1</title><g id="_Group_" data-name="&lt;Group&gt;"><g id="Layer_1-2" data-name="Layer 1"><g id="_Group_2" data-name="&lt;Group&gt;"><g id="_Group_3" data-name="&lt;Group&gt;"><g id="_Group_4" data-name="&lt;Group&gt;"><g clip-path="url(#clip-path)"><path id="_Path_" data-name="&lt;Path&gt;" d="M16.95,25.9c3.8-.5,14.6-.8,11.7,14.8l3.4-.3c-1.5-9.6,1.6-14.5,11.2-15-16-8.8-25.1.4-26.3.5" fill="#fde090"/></g></g></g><g id="_Group_5" data-name="&lt;Group&gt;"><g id="_Group_6" data-name="&lt;Group&gt;"><g clip-path="url(#clip-path)"><path id="_Path_2" data-name="&lt;Path&gt;" d="M31.75,38.2a9.07,9.07,0,0,0,11.7,5.4,9.18,9.18,0,1,0-6.4-17.2,9.34,9.34,0,0,0-5.3,11.8" fill="#fff"/></g></g></g><g id="_Group_7" data-name="&lt;Group&gt;"><g id="_Group_8" data-name="&lt;Group&gt;"><g clip-path="url(#clip-path)"><path id="_Path_3" data-name="&lt;Path&gt;" d="M29.25,35a9.15,9.15,0,1,1-9.1-9.1,9.13,9.13,0,0,1,9.1,9.1" fill="#fff"/></g></g></g><g id="_Group_9" data-name="&lt;Group&gt;"><g id="_Group_10" data-name="&lt;Group&gt;"><g clip-path="url(#clip-path)"><path id="_Path_4" data-name="&lt;Path&gt;" d="M21.65,34.9a1.7,1.7,0,1,1-1.7-1.7,1.75,1.75,0,0,1,1.7,1.7" fill="#bc2636"/></g></g></g><g id="_Group_11" data-name="&lt;Group&gt;"><g id="_Group_12" data-name="&lt;Group&gt;"><g clip-path="url(#clip-path)"><path id="_Path_5" data-name="&lt;Path&gt;" d="M42.05,34.9a1.7,1.7,0,1,1-1.7-1.7,1.83,1.83,0,0,1,1.7,1.7" fill="#00af87"/></g></g></g><g id="_Group_13" data-name="&lt;Group&gt;"><g id="_Group_14" data-name="&lt;Group&gt;"><g clip-path="url(#clip-path)"><path id="_Compound_Path_" data-name="&lt;Compound Path&gt;" d="M48.55,29a14.54,14.54,0,0,1,2-4.1h-6.8a24.36,24.36,0,0,0-13.6-3.8,25.14,25.14,0,0,0-13.9,3.8H9.85a13.31,13.31,0,0,1,2,4,10.53,10.53,0,0,0-2,6A10.24,10.24,0,0,0,20,45.1a10.06,10.06,0,0,0,7.9-3.8l2.2,3.3,2.2-3.3a8.73,8.73,0,0,0,3.7,2.9,10.52,10.52,0,0,0,7.8.3,10.1,10.1,0,0,0,6-13.1,9.45,9.45,0,0,0-1.3-2.4m-8.5-4.1a9.06,9.06,0,0,0-3.2.6,9.9,9.9,0,0,0-5.7,5.3,10.64,10.64,0,0,0-.9,3.5,10.18,10.18,0,0,0-9.9-9.4,26.06,26.06,0,0,1,9.9-1.9,22.29,22.29,0,0,1,9.8,1.9M20.15,43.2a8.1,8.1,0,1,1,8.1-8.1,8.2,8.2,0,0,1-8.1,8.1m23-.5a7.87,7.87,0,0,1-6.2-.2,7.64,7.64,0,0,1-4.2-4.6h0a7.87,7.87,0,0,1,.2-6.2,7.64,7.64,0,0,1,4.6-4.2,8.1,8.1,0,0,1,5.6,15.2" fill="#020202"/></g></g></g><g id="_Group_15" data-name="&lt;Group&gt;"><g id="_Group_16" data-name="&lt;Group&gt;"><g clip-path="url(#clip-path)"><path id="_Compound_Path_2" data-name="&lt;Compound Path&gt;" d="M19.95,29.9a5,5,0,1,0,5,5,5,5,0,0,0-5-5m0,8.3a3.3,3.3,0,1,1,3.3-3.3,3.27,3.27,0,0,1-3.3,3.3" fill="#020202"/></g></g></g><g id="_Group_17" data-name="&lt;Group&gt;"><g id="_Group_18" data-name="&lt;Group&gt;"><g clip-path="url(#clip-path)"><path id="_Compound_Path_3" data-name="&lt;Compound Path&gt;" d="M40.35,29.9a5,5,0,1,0,5,5,5,5,0,0,0-5-5m0,8.3a3.3,3.3,0,1,1,3.3-3.3,3.27,3.27,0,0,1-3.3,3.3" fill="#020202"/></g></g></g></g><path id="_Path_6" data-name="&lt;Path&gt;" d="M68,44.6l-1.8-1.8a.91.91,0,0,0-1.2,0L54.65,53.7l-4.9-5.2a.78.78,0,0,0-1.1,0l-1.7,1.8a.91.91,0,0,0,0,1.2l5.5,5.8h0l1.2,1.3.3.3h0l.3.3a.91.91,0,0,0,1.2,0l12.6-13.4A1.07,1.07,0,0,0,68,44.6Z" fill="#00af87"/></g><g id="Layer_2" data-name="Layer 2"><g id="_Group_21" data-name="&lt;Group&gt;"><path id="_Path_7" data-name="&lt;Path&gt;" d="M46.55,56.7h0c-4.9,3-15,6-16,6.3-1.1-.3-12.2-3.7-16.8-6.8-6.6-4.5-8.3-6.2-8.3-7.2V11.1c5-2.6,18.4-4.1,25.1-4.1s20.1,1.4,25.1,4.1V47.2l4.3-4.4V8.2c-5.8-3.5-20.7-5.6-29.5-5.6S6.85,4.7,1.15,8.2V49.4c0,7.1,26.7,18,29.3,18,1.5,0,10.8-3.6,18.6-7.9Z" fill="#00af87"/></g></g></g><path d="M52.45,24.18a1,1,0,0,1,.72.3,1,1,0,0,1,.21.32,1,1,0,0,1,.07.38,1,1,0,0,1-.08.39.94.94,0,0,1-.22.32,1,1,0,0,1-.33.22,1,1,0,0,1-.38.08,1,1,0,0,1-.38-.08,1,1,0,0,1-.33-.22,1,1,0,0,1-.25-1,1.07,1.07,0,0,1,.11-.25,1,1,0,0,1,.85-.48Zm0,.17a.83.83,0,0,0-.32.06.8.8,0,0,0-.26.18.87.87,0,0,0-.19.28.82.82,0,0,0,.17.9.84.84,0,0,0,.27.19.81.81,0,0,0,.32.07.82.82,0,0,0,.31-.06.91.91,0,0,0,.28-.18.8.8,0,0,0,.18-.26.78.78,0,0,0,.06-.31.88.88,0,0,0-.06-.33A.8.8,0,0,0,53,24.6a.82.82,0,0,0-.27-.19A.83.83,0,0,0,52.45,24.35ZM52,24.6h.44a.64.64,0,0,1,.36.08.27.27,0,0,1,.12.24.29.29,0,0,1-.06.19.33.33,0,0,1-.18.11l.25.5h-.3l-.21-.46H52.3v.46H52Zm.27.17v.32h.13a.32.32,0,0,0,.17,0,.13.13,0,0,0,.06-.12.14.14,0,0,0-.06-.13.33.33,0,0,0-.18,0Z" fill="#1d1d1b"/></svg>