<?xml version="1.0" encoding="utf-8"?>
<!-- Generator: Adobe Illustrator 16.0.0, SVG Export Plug-In . SVG Version: 6.00 Build 0)  -->
<!DOCTYPE svg PUBLIC "-//W3C//DTD SVG 1.1//EN" "http://www.w3.org/Graphics/SVG/1.1/DTD/svg11.dtd">
<svg version="1.1" id="Layer_1" xmlns="http://www.w3.org/2000/svg" xmlns:xlink="http://www.w3.org/1999/xlink" x="0px" y="0px"
	 width="40px" height="40px" viewBox="-1 -6.807 40 40" enable-background="new -1 -6.807 40 40" xml:space="preserve">
<path fill="none" stroke="#FFFFFF" stroke-width="2" stroke-miterlimit="10" d="M19-5.807c10.493,0,19,8.506,19,19s-8.507,19-19,19
	c-10.493,0-19-8.506-19-19C0,2.699,8.507-5.807,19-5.807z"/>
<rect y="-2.415" fill="none" width="38" height="31.214"/>
<g enable-background="new    ">
	<path fill="#FFFFFF" d="M15.734,23.811c0-1.039,0.278-1.824,0.835-2.356c0.557-0.531,1.366-0.798,2.431-0.798
		c1.027,0,1.821,0.272,2.384,0.816c0.564,0.545,0.844,1.324,0.844,2.338c0,0.978-0.284,1.748-0.853,2.31
		c-0.569,0.564-1.361,0.845-2.375,0.845c-1.039,0-1.843-0.274-2.412-0.826C16.018,25.59,15.734,24.812,15.734,23.811z M21.28,17.464
		h-4.527L15.808-0.663h6.42L21.28,17.464z"/>
</g>
</svg>
