<?xml version="1.0" encoding="utf-8"?>
<!-- Generator: Adobe Illustrator 16.0.0, SVG Export Plug-In . SVG Version: 6.00 Build 0)  -->
<!DOCTYPE svg PUBLIC "-//W3C//DTD SVG 1.1//EN" "http://www.w3.org/Graphics/SVG/1.1/DTD/svg11.dtd">
<svg version="1.1" id="lines" xmlns="http://www.w3.org/2000/svg" xmlns:xlink="http://www.w3.org/1999/xlink" x="0px" y="0px"
	 width="171.536px" height="75px" viewBox="1.964 0 171.536 75" enable-background="new 1.964 0 171.536 75" xml:space="preserve">
<rect x="27.131" fill="#FFFFFF" width="12.521" height="5.204"/>
<path fill="none" stroke="#FFFFFF" stroke-miterlimit="10" d="M63.55,19c5.353,7,8.565,15.323,8.565,24.5S68.903,61,63.55,68H173V19
	H63.55z"/>
<g>
	<path fill="#FFFFFF" d="M33.598,15.732c15.237,0,27.634,12.396,27.634,27.634C61.231,58.604,48.835,71,33.598,71
		C18.361,71,5.963,58.604,5.963,43.366C5.963,28.128,18.36,15.732,33.598,15.732 M33.598,11.732
		c-17.471,0-31.634,14.163-31.634,31.634C1.963,60.837,16.126,75,33.598,75c17.471,0,31.634-14.163,31.634-31.634
		C65.231,25.895,51.068,11.732,33.598,11.732L33.598,11.732z"/>
</g>
<rect x="13.34" y="58.607" transform="matrix(0.7069 0.7074 -0.7074 0.7069 48.6274 8.2762)" fill="#FFFFFF" width="1.977" height="8.401"/>
<rect x="13.168" y="19.897" transform="matrix(-0.7074 0.7069 -0.7069 -0.7074 41.2031 31.1373)" fill="#FFFFFF" width="1.977" height="8.402"/>
<rect x="52.052" y="58.429" transform="matrix(0.7072 -0.707 0.707 0.7072 -28.7495 55.8351)" fill="#FFFFFF" width="1.977" height="8.402"/>
<rect x="51.876" y="19.723" transform="matrix(-0.7071 -0.7071 0.7071 -0.7071 73.3279 78.222)" fill="#FFFFFF" width="1.977" height="8.403"/>
<rect x="32.732" y="66.535" fill="#FFFFFF" width="1.977" height="8.402"/>
<rect x="2.025" y="42.501" fill="#FFFFFF" width="8.403" height="1.978"/>
<rect x="32.485" y="43.242" fill="#FFFFFF" width="12.211" height="1.979"/>
<rect x="56.767" y="42.254" fill="#FFFFFF" width="8.403" height="1.979"/>
<rect x="32.485" y="27.611" fill="#FFFFFF" width="1.977" height="16.868"/>
<rect x="32.485" y="2.896" fill="#FFFFFF" width="1.977" height="17.3"/>
</svg>
